<svg xmlns="http://www.w3.org/2000/svg" version="1.1" xmlns:xlink="http://www.w3.org/1999/xlink" xmlns:svgjs="http://svgjs.dev/svgjs" width="128" height="128" viewBox="0 0 128 128"><g transform="matrix(0.8046875,0,0,0.8046875,12.221578124999994,12.215232499592943)"><svg viewBox="0 0 96 96" data-background-color="#000000" preserveAspectRatio="xMidYMid meet" height="128" width="128" xmlns="http://www.w3.org/2000/svg" xmlns:xlink="http://www.w3.org/1999/xlink"><g id="tight-bounds" transform="matrix(1,0,0,1,0.25950000000000273,0.26541436931142925)"><svg viewBox="0 0 95.481 95.46917126137714" height="95.46917126137714" width="95.481"><g><svg viewBox="0 0 95.481 95.46917126137714" height="95.46917126137714" width="95.481"><g><svg viewBox="0 0 95.481 95.46917126137714" height="95.46917126137714" width="95.481"><g id="textblocktransform"><svg viewBox="0 0 95.481 95.46917126137714" height="95.46917126137714" width="95.481" id="textblock"><g><svg viewBox="0 0 95.481 95.46917126137714" height="95.46917126137714" width="95.481"><g><svg viewBox="0 0 95.481 95.46917126137714" height="95.46917126137714" width="95.481"><g><svg xmlns="http://www.w3.org/2000/svg" xmlns:xlink="http://www.w3.org/1999/xlink" version="1.1" x="0" y="0" viewBox="4.987256845390101 4.999573872807243 90.01317418909267 90.00202283636179" enable-background="new 0 0 100 100" xml:space="preserve" height="95.46917126137714" width="95.481" class="icon-icon-0" data-fill-palette-color="accent" id="icon-0"></svg></g></svg></g></svg></g></svg></g></svg></g><g></g></svg></g><defs></defs><mask id="b98f4cad-e675-410c-bdab-867f8423377b"><g id="SvgjsG7448"><svg viewBox="0 0 95.481 95.46917126137714" height="95.46917126137714" width="95.481"><g><svg viewBox="0 0 95.481 95.46917126137714" height="95.46917126137714" width="95.481"><g><svg viewBox="0 0 95.481 95.46917126137714" height="95.46917126137714" width="95.481"><g id="SvgjsG7447"><svg viewBox="0 0 95.481 95.46917126137714" height="95.46917126137714" width="95.481" id="SvgjsSvg7446"><g><svg viewBox="0 0 95.481 95.46917126137714" height="95.46917126137714" width="95.481"><g><svg viewBox="0 0 95.481 95.46917126137714" height="95.46917126137714" width="95.481"><g><svg xmlns="http://www.w3.org/2000/svg" xmlns:xlink="http://www.w3.org/1999/xlink" version="1.1" x="0" y="0" viewBox="4.987256845390101 4.999573872807243 90.01317418909267 90.00202283636179" enable-background="new 0 0 100 100" xml:space="preserve" height="95.46917126137714" width="95.481" class="icon-icon-0" data-fill-palette-color="accent" id="SvgjsSvg7445"><g fill="white"><path fill="white" d="M82.1 18.3C64.6 0.7 36 0.5 18.1 18.1 0.7 35.6 0.6 64.1 17.9 81.6 26.4 90.2 37.6 94.9 49.7 95 61.7 95.1 73.1 90.5 81.6 82L81.8 81.8C99.3 64.4 99.4 35.9 82.1 18.3M77.6 77.5L77.4 77.7C70 85 60.2 89 49.8 88.9S29.6 84.7 22.3 77.3C7.3 62.1 7.4 37.5 22.6 22.2 37.9 7.1 62.6 7.3 77.7 22.5 92.7 37.8 92.7 62.4 77.6 77.5"></path><path fill="white" d="M71.4 28C70.3 26.9 68.4 26.9 67.3 28L27.8 67.5C26.7 68.6 26.7 70.5 27.8 71.6 28.4 72.2 29.1 72.5 29.9 72.5 30.6 72.5 31.4 72.2 32 71.6L71.5 32.1C72.5 31 72.5 29.1 71.4 28"></path><path fill="white" d="M63.3 53.5C57.9 53.5 53.5 57.9 53.5 63.3S57.9 73.1 63.3 73.1 73.1 68.7 73.1 63.3 68.7 53.5 63.3 53.5M63.3 67.3C61.1 67.3 59.3 65.5 59.3 63.3S61.1 59.3 63.3 59.3 67.3 61.1 67.3 63.3 65.5 67.3 63.3 67.3"></path><path fill="white" d="M36.7 46.5C42.1 46.5 46.5 42.1 46.5 36.7S42.1 26.9 36.7 26.9 26.9 31.3 26.9 36.7 31.3 46.5 36.7 46.5M36.7 32.7C38.9 32.7 40.7 34.5 40.7 36.7S38.9 40.7 36.7 40.7 32.7 38.9 32.7 36.7 34.5 32.7 36.7 32.7"></path></g></svg></g></svg></g></svg></g></svg></g></svg></g><g></g></svg></g><defs><mask></mask></defs></svg><rect width="95.481" height="95.46917126137714" fill="black" stroke="none" visibility="hidden"></rect></g></mask><linearGradient x1="0" x2="1" y1="0.578" y2="0.595" id="d83743a5-c1ee-4ae6-b5f2-5681085d1797"><stop stop-color="#6ee2f5" offset="0"></stop><stop stop-color="#6454f0" offset="1"></stop></linearGradient><rect width="95.481" height="95.46917126137714" fill="#000000" mask="url(#b98f4cad-e675-410c-bdab-867f8423377b)" data-fill-palette-color="accent"></rect></svg><rect width="95.481" height="95.46917126137714" fill="none" stroke="none" visibility="hidden"></rect></g></svg></g></svg>